<svg id="bdbb5374-746d-459a-b913-d7fe386134c4" data-name="Layer 1" xmlns="http://www.w3.org/2000/svg" viewBox="0 0 162.01022 41.06532"><title>logo</title><path d="M11.38484,14.86022a5.60979,5.60979,0,0,1,5.63251,5.95206,5.5533,5.5533,0,0,1-5.63251,5.91213,5.59863,5.59863,0,0,1-5.6325-5.91213A5.63287,5.63287,0,0,1,11.38484,14.86022ZM10.0666,9.42744C4.474,9.42744,0,14.10122,0,20.81228c0,6.63119,4.39415,11.38485,10.10654,11.38485a8.07679,8.07679,0,0,0,6.91081-3.55526V35.6725H2.67644v5.39282h20.0533V9.90681H17.01735v3.1558A8.07537,8.07537,0,0,0,10.0666,9.42744Z"/><path d="M37.35843,14.86022c3.19574,0,5.6325,2.43675,5.6325,6.032,0,3.63515-2.39681,6.032-5.6325,6.032-3.1558,0-5.6325-2.39681-5.6325-6.032C31.72593,17.297,34.20263,14.86022,37.35843,14.86022ZM36.04019,9.42744c-5.59256,0-10.0666,4.67378-10.0666,11.46474,0,6.751,4.39415,11.46474,10.10654,11.46474a8.047,8.047,0,0,0,6.9108-3.51531v3.03595h5.7124V9.90681h-5.7124v3.1558A8.07536,8.07536,0,0,0,36.04019,9.42744Z"/><polygon points="66.435 15.34 66.435 9.907 53.053 9.907 53.053 31.878 58.765 31.878 58.765 15.34 66.435 15.34"/><polygon points="82.435 15.34 82.435 9.907 69.053 9.907 69.053 31.878 74.765 31.878 74.765 15.34 82.435 15.34"/><path d="M91.31973,31.87756V9.90681h-5.7124V31.87756ZM88.44355,0a3.38478,3.38478,0,1,0,3.63516,3.35552A3.374,3.374,0,0,0,88.44355,0Z"/><path d="M91.31973,31.87756V9.90681h-5.7124V31.87756ZM88.44355,0a3.38478,3.38478,0,1,0,3.63516,3.35552A3.374,3.374,0,0,0,88.44355,0Z"/><path d="M127.96655,14.86022c3.19574,0,5.67245,2.43675,5.67245,6.032,0,3.63515-2.43676,6.032-5.67245,6.032a5.66354,5.66354,0,0,1-5.67244-6.032A5.6865,5.6865,0,0,1,127.96655,14.86022Zm0-5.43278a11.25689,11.25689,0,0,0-11.42478,11.46474,11.44478,11.44478,0,1,0,22.88952,0A11.266,11.266,0,0,0,127.96655,9.42744Z"/><polygon points="162.01 31.878 162.01 9.907 142.077 9.907 142.077 31.878 147.789 31.878 147.789 15.34 156.258 15.34 156.258 31.878 162.01 31.878"/><path d="M104.84051,32.314c5.4226,0,9.76864-2.193,9.76864-7.09721,0-4.38592-3.50873-5.78144-9.76864-7.21683-3.18976-.7177-4.18656-1.31578-4.18656-2.31258,0-1.236,1.39552-1.874,3.38912-1.874,2.91066,0,4.10682.9968,4.54541,2.63155h5.78144c-.75757-4.06694-3.748-7.01747-9.84838-7.01747-5.78144,0-9.60915,2.67142-9.60915,6.73837,0,3.78784,2.193,5.2631,8.77184,6.81811,3.30937.79744,5.02387,1.31577,5.02387,2.791,0,1.2759-1.19616,1.91385-3.7081,1.91385-3.54861,0-4.86438-1.236-5.303-3.07014H93.91559C94.713,29.44318,98.97933,32.314,104.84051,32.314Z"/></svg>